<mxfile host="app.diagrams.net" modified="2024-09-05T02:12:52.108Z" agent="Mozilla/5.0 (Windows NT 10.0; Win64; x64) AppleWebKit/537.36 (KHTML, like Gecko) Chrome/127.0.0.0 Safari/537.36" etag="CKLamcF1lJ7suzUWFZYG" version="24.6.4" type="device">
  <diagram name="페이지-1" id="bHoaKOiDrSkIpB28r4Kj">
    <mxGraphModel dx="1456" dy="1047" grid="1" gridSize="10" guides="1" tooltips="1" connect="1" arrows="1" fold="1" page="1" pageScale="1" pageWidth="827" pageHeight="1169" math="0" shadow="0">
      <root>
        <mxCell id="0" />
        <mxCell id="1" parent="0" />
        <mxCell id="tU0DC7_8pxIkKtIqOvoZ-2" value="시작" style="strokeWidth=1;html=1;shape=mxgraph.flowchart.terminator;whiteSpace=wrap;" vertex="1" parent="1">
          <mxGeometry x="160" y="40" width="120" height="60" as="geometry" />
        </mxCell>
        <mxCell id="tU0DC7_8pxIkKtIqOvoZ-15" style="edgeStyle=orthogonalEdgeStyle;rounded=0;orthogonalLoop=1;jettySize=auto;html=1;exitX=0.5;exitY=1;exitDx=0;exitDy=0;entryX=0.5;entryY=0;entryDx=0;entryDy=0;" edge="1" parent="1" source="tU0DC7_8pxIkKtIqOvoZ-3" target="tU0DC7_8pxIkKtIqOvoZ-7">
          <mxGeometry relative="1" as="geometry" />
        </mxCell>
        <mxCell id="tU0DC7_8pxIkKtIqOvoZ-3" value="데이터 불러오기" style="rounded=0;whiteSpace=wrap;html=1;" vertex="1" parent="1">
          <mxGeometry x="162.5" y="140" width="115" height="60" as="geometry" />
        </mxCell>
        <mxCell id="tU0DC7_8pxIkKtIqOvoZ-40" style="edgeStyle=orthogonalEdgeStyle;rounded=0;orthogonalLoop=1;jettySize=auto;html=1;exitX=0.5;exitY=1;exitDx=0;exitDy=0;entryX=0.5;entryY=0;entryDx=0;entryDy=0;" edge="1" parent="1" source="tU0DC7_8pxIkKtIqOvoZ-5" target="tU0DC7_8pxIkKtIqOvoZ-6">
          <mxGeometry relative="1" as="geometry" />
        </mxCell>
        <mxCell id="tU0DC7_8pxIkKtIqOvoZ-5" value="결측치 보정" style="rounded=0;whiteSpace=wrap;html=1;" vertex="1" parent="1">
          <mxGeometry x="-40" y="57.75" width="115" height="60" as="geometry" />
        </mxCell>
        <mxCell id="tU0DC7_8pxIkKtIqOvoZ-42" style="edgeStyle=orthogonalEdgeStyle;rounded=0;orthogonalLoop=1;jettySize=auto;html=1;exitX=0.5;exitY=1;exitDx=0;exitDy=0;entryX=0.5;entryY=0;entryDx=0;entryDy=0;" edge="1" parent="1" source="tU0DC7_8pxIkKtIqOvoZ-6" target="tU0DC7_8pxIkKtIqOvoZ-37">
          <mxGeometry relative="1" as="geometry" />
        </mxCell>
        <mxCell id="tU0DC7_8pxIkKtIqOvoZ-6" value="시간 병합" style="rounded=0;whiteSpace=wrap;html=1;" vertex="1" parent="1">
          <mxGeometry x="-40" y="147.75" width="115" height="60" as="geometry" />
        </mxCell>
        <mxCell id="tU0DC7_8pxIkKtIqOvoZ-16" style="edgeStyle=orthogonalEdgeStyle;rounded=0;orthogonalLoop=1;jettySize=auto;html=1;exitX=0.5;exitY=1;exitDx=0;exitDy=0;entryX=0.5;entryY=0;entryDx=0;entryDy=0;" edge="1" parent="1" source="tU0DC7_8pxIkKtIqOvoZ-7" target="tU0DC7_8pxIkKtIqOvoZ-8">
          <mxGeometry relative="1" as="geometry" />
        </mxCell>
        <mxCell id="tU0DC7_8pxIkKtIqOvoZ-46" style="edgeStyle=orthogonalEdgeStyle;rounded=0;orthogonalLoop=1;jettySize=auto;html=1;exitX=0;exitY=0.25;exitDx=0;exitDy=0;entryX=0.5;entryY=0;entryDx=0;entryDy=0;" edge="1" parent="1" source="tU0DC7_8pxIkKtIqOvoZ-7" target="tU0DC7_8pxIkKtIqOvoZ-5">
          <mxGeometry relative="1" as="geometry">
            <mxPoint y="20" as="targetPoint" />
            <Array as="points">
              <mxPoint x="121" y="255" />
              <mxPoint x="121" y="20" />
              <mxPoint x="18" y="20" />
            </Array>
          </mxGeometry>
        </mxCell>
        <mxCell id="tU0DC7_8pxIkKtIqOvoZ-7" value="데이터 전처리" style="rounded=0;whiteSpace=wrap;html=1;" vertex="1" parent="1">
          <mxGeometry x="162.5" y="240" width="115" height="60" as="geometry" />
        </mxCell>
        <mxCell id="tU0DC7_8pxIkKtIqOvoZ-17" style="edgeStyle=orthogonalEdgeStyle;rounded=0;orthogonalLoop=1;jettySize=auto;html=1;exitX=0.5;exitY=1;exitDx=0;exitDy=0;entryX=0.5;entryY=0;entryDx=0;entryDy=0;" edge="1" parent="1" source="tU0DC7_8pxIkKtIqOvoZ-8" target="tU0DC7_8pxIkKtIqOvoZ-9">
          <mxGeometry relative="1" as="geometry" />
        </mxCell>
        <mxCell id="tU0DC7_8pxIkKtIqOvoZ-8" value="데이터 분할" style="rounded=0;whiteSpace=wrap;html=1;" vertex="1" parent="1">
          <mxGeometry x="162.5" y="340" width="115" height="60" as="geometry" />
        </mxCell>
        <mxCell id="tU0DC7_8pxIkKtIqOvoZ-18" style="edgeStyle=orthogonalEdgeStyle;rounded=0;orthogonalLoop=1;jettySize=auto;html=1;exitX=0.5;exitY=1;exitDx=0;exitDy=0;entryX=0.5;entryY=0;entryDx=0;entryDy=0;" edge="1" parent="1" source="tU0DC7_8pxIkKtIqOvoZ-9" target="tU0DC7_8pxIkKtIqOvoZ-10">
          <mxGeometry relative="1" as="geometry" />
        </mxCell>
        <mxCell id="tU0DC7_8pxIkKtIqOvoZ-9" value="데이터 정규화" style="rounded=0;whiteSpace=wrap;html=1;" vertex="1" parent="1">
          <mxGeometry x="162.5" y="440" width="115" height="60" as="geometry" />
        </mxCell>
        <mxCell id="tU0DC7_8pxIkKtIqOvoZ-20" style="edgeStyle=orthogonalEdgeStyle;rounded=0;orthogonalLoop=1;jettySize=auto;html=1;exitX=0.5;exitY=1;exitDx=0;exitDy=0;entryX=0.5;entryY=0;entryDx=0;entryDy=0;" edge="1" parent="1" source="tU0DC7_8pxIkKtIqOvoZ-10" target="tU0DC7_8pxIkKtIqOvoZ-11">
          <mxGeometry relative="1" as="geometry" />
        </mxCell>
        <mxCell id="tU0DC7_8pxIkKtIqOvoZ-10" value="&lt;div&gt;sliding window로&lt;/div&gt;데이터 생성" style="rounded=0;whiteSpace=wrap;html=1;" vertex="1" parent="1">
          <mxGeometry x="162.5" y="540" width="115" height="60" as="geometry" />
        </mxCell>
        <mxCell id="tU0DC7_8pxIkKtIqOvoZ-22" style="edgeStyle=orthogonalEdgeStyle;rounded=0;orthogonalLoop=1;jettySize=auto;html=1;exitX=1;exitY=0.5;exitDx=0;exitDy=0;" edge="1" parent="1" source="tU0DC7_8pxIkKtIqOvoZ-11">
          <mxGeometry relative="1" as="geometry">
            <mxPoint x="420" y="50" as="targetPoint" />
            <Array as="points">
              <mxPoint x="340" y="670" />
              <mxPoint x="340" y="50" />
            </Array>
          </mxGeometry>
        </mxCell>
        <mxCell id="tU0DC7_8pxIkKtIqOvoZ-11" value="LSTM 구조 정의" style="rounded=0;whiteSpace=wrap;html=1;" vertex="1" parent="1">
          <mxGeometry x="162.5" y="640" width="115" height="60" as="geometry" />
        </mxCell>
        <mxCell id="tU0DC7_8pxIkKtIqOvoZ-12" value="" style="endArrow=classic;html=1;rounded=0;exitX=0.5;exitY=1;exitDx=0;exitDy=0;exitPerimeter=0;entryX=0.5;entryY=0;entryDx=0;entryDy=0;" edge="1" parent="1" source="tU0DC7_8pxIkKtIqOvoZ-2" target="tU0DC7_8pxIkKtIqOvoZ-3">
          <mxGeometry width="50" height="50" relative="1" as="geometry">
            <mxPoint x="340" y="390" as="sourcePoint" />
            <mxPoint x="390" y="340" as="targetPoint" />
          </mxGeometry>
        </mxCell>
        <mxCell id="tU0DC7_8pxIkKtIqOvoZ-26" style="edgeStyle=orthogonalEdgeStyle;rounded=0;orthogonalLoop=1;jettySize=auto;html=1;exitX=0.5;exitY=1;exitDx=0;exitDy=0;entryX=0.5;entryY=0;entryDx=0;entryDy=0;" edge="1" parent="1" source="tU0DC7_8pxIkKtIqOvoZ-23" target="tU0DC7_8pxIkKtIqOvoZ-24">
          <mxGeometry relative="1" as="geometry" />
        </mxCell>
        <mxCell id="tU0DC7_8pxIkKtIqOvoZ-23" value="LSTM 학습" style="rounded=0;whiteSpace=wrap;html=1;" vertex="1" parent="1">
          <mxGeometry x="420" y="20" width="115" height="60" as="geometry" />
        </mxCell>
        <mxCell id="tU0DC7_8pxIkKtIqOvoZ-30" style="edgeStyle=orthogonalEdgeStyle;rounded=0;orthogonalLoop=1;jettySize=auto;html=1;exitX=0.5;exitY=1;exitDx=0;exitDy=0;" edge="1" parent="1" source="tU0DC7_8pxIkKtIqOvoZ-24" target="tU0DC7_8pxIkKtIqOvoZ-27">
          <mxGeometry relative="1" as="geometry" />
        </mxCell>
        <mxCell id="tU0DC7_8pxIkKtIqOvoZ-34" value="No" style="edgeLabel;html=1;align=center;verticalAlign=middle;resizable=0;points=[];" vertex="1" connectable="0" parent="tU0DC7_8pxIkKtIqOvoZ-30">
          <mxGeometry x="-0.1" y="-1" relative="1" as="geometry">
            <mxPoint as="offset" />
          </mxGeometry>
        </mxCell>
        <mxCell id="tU0DC7_8pxIkKtIqOvoZ-35" style="edgeStyle=orthogonalEdgeStyle;rounded=0;orthogonalLoop=1;jettySize=auto;html=1;exitX=1;exitY=0.5;exitDx=0;exitDy=0;entryX=0;entryY=0.5;entryDx=0;entryDy=0;" edge="1" parent="1" source="tU0DC7_8pxIkKtIqOvoZ-24" target="tU0DC7_8pxIkKtIqOvoZ-33">
          <mxGeometry relative="1" as="geometry" />
        </mxCell>
        <mxCell id="tU0DC7_8pxIkKtIqOvoZ-36" value="Yes" style="edgeLabel;html=1;align=center;verticalAlign=middle;resizable=0;points=[];" vertex="1" connectable="0" parent="tU0DC7_8pxIkKtIqOvoZ-35">
          <mxGeometry x="-0.0105" y="-2" relative="1" as="geometry">
            <mxPoint as="offset" />
          </mxGeometry>
        </mxCell>
        <mxCell id="tU0DC7_8pxIkKtIqOvoZ-24" value="설정된 epoch 만큼&amp;nbsp;&lt;div&gt;학습을 수행했나?&lt;/div&gt;" style="rhombus;whiteSpace=wrap;html=1;" vertex="1" parent="1">
          <mxGeometry x="396.25" y="110" width="162.5" height="80" as="geometry" />
        </mxCell>
        <mxCell id="tU0DC7_8pxIkKtIqOvoZ-31" style="edgeStyle=orthogonalEdgeStyle;rounded=0;orthogonalLoop=1;jettySize=auto;html=1;exitX=0.5;exitY=1;exitDx=0;exitDy=0;entryX=0.5;entryY=0;entryDx=0;entryDy=0;" edge="1" parent="1" source="tU0DC7_8pxIkKtIqOvoZ-27" target="tU0DC7_8pxIkKtIqOvoZ-29">
          <mxGeometry relative="1" as="geometry" />
        </mxCell>
        <mxCell id="tU0DC7_8pxIkKtIqOvoZ-27" value="loss 계산" style="rounded=0;whiteSpace=wrap;html=1;" vertex="1" parent="1">
          <mxGeometry x="420" y="230" width="115" height="60" as="geometry" />
        </mxCell>
        <mxCell id="tU0DC7_8pxIkKtIqOvoZ-32" style="edgeStyle=orthogonalEdgeStyle;rounded=0;orthogonalLoop=1;jettySize=auto;html=1;exitX=0;exitY=0.5;exitDx=0;exitDy=0;" edge="1" parent="1" source="tU0DC7_8pxIkKtIqOvoZ-29">
          <mxGeometry relative="1" as="geometry">
            <mxPoint x="478" y="90" as="targetPoint" />
            <Array as="points">
              <mxPoint x="371" y="360" />
              <mxPoint x="371" y="90" />
              <mxPoint x="450" y="90" />
            </Array>
          </mxGeometry>
        </mxCell>
        <mxCell id="tU0DC7_8pxIkKtIqOvoZ-29" value="parameter 업데이트" style="rounded=0;whiteSpace=wrap;html=1;" vertex="1" parent="1">
          <mxGeometry x="420" y="330" width="115" height="60" as="geometry" />
        </mxCell>
        <mxCell id="tU0DC7_8pxIkKtIqOvoZ-51" style="edgeStyle=orthogonalEdgeStyle;rounded=0;orthogonalLoop=1;jettySize=auto;html=1;exitX=0.5;exitY=1;exitDx=0;exitDy=0;entryX=0.5;entryY=0;entryDx=0;entryDy=0;" edge="1" parent="1" source="tU0DC7_8pxIkKtIqOvoZ-33" target="tU0DC7_8pxIkKtIqOvoZ-50">
          <mxGeometry relative="1" as="geometry" />
        </mxCell>
        <mxCell id="tU0DC7_8pxIkKtIqOvoZ-33" value="예측, 비교,&amp;nbsp;&lt;div&gt;RMSE 계산&lt;/div&gt;" style="rounded=0;whiteSpace=wrap;html=1;" vertex="1" parent="1">
          <mxGeometry x="630" y="120" width="115" height="60" as="geometry" />
        </mxCell>
        <mxCell id="tU0DC7_8pxIkKtIqOvoZ-43" style="edgeStyle=orthogonalEdgeStyle;rounded=0;orthogonalLoop=1;jettySize=auto;html=1;exitX=0.5;exitY=1;exitDx=0;exitDy=0;entryX=0.5;entryY=0;entryDx=0;entryDy=0;" edge="1" parent="1" source="tU0DC7_8pxIkKtIqOvoZ-37" target="tU0DC7_8pxIkKtIqOvoZ-38">
          <mxGeometry relative="1" as="geometry" />
        </mxCell>
        <mxCell id="tU0DC7_8pxIkKtIqOvoZ-37" value="이상치 보정" style="rounded=0;whiteSpace=wrap;html=1;" vertex="1" parent="1">
          <mxGeometry x="-40" y="237.75" width="115" height="60" as="geometry" />
        </mxCell>
        <mxCell id="tU0DC7_8pxIkKtIqOvoZ-44" style="edgeStyle=orthogonalEdgeStyle;rounded=0;orthogonalLoop=1;jettySize=auto;html=1;exitX=0.5;exitY=1;exitDx=0;exitDy=0;entryX=0.5;entryY=0;entryDx=0;entryDy=0;" edge="1" parent="1" source="tU0DC7_8pxIkKtIqOvoZ-38" target="tU0DC7_8pxIkKtIqOvoZ-39">
          <mxGeometry relative="1" as="geometry" />
        </mxCell>
        <mxCell id="tU0DC7_8pxIkKtIqOvoZ-38" value="평일, 주말&amp;nbsp;&lt;div&gt;데이터 선택&lt;/div&gt;" style="rounded=0;whiteSpace=wrap;html=1;" vertex="1" parent="1">
          <mxGeometry x="-40" y="327.75" width="115" height="60" as="geometry" />
        </mxCell>
        <mxCell id="tU0DC7_8pxIkKtIqOvoZ-49" style="edgeStyle=orthogonalEdgeStyle;rounded=0;orthogonalLoop=1;jettySize=auto;html=1;exitX=0.5;exitY=1;exitDx=0;exitDy=0;entryX=0;entryY=0.75;entryDx=0;entryDy=0;" edge="1" parent="1" source="tU0DC7_8pxIkKtIqOvoZ-39" target="tU0DC7_8pxIkKtIqOvoZ-7">
          <mxGeometry relative="1" as="geometry">
            <mxPoint x="120" y="280" as="targetPoint" />
            <Array as="points">
              <mxPoint x="18" y="510" />
              <mxPoint x="120" y="510" />
              <mxPoint x="120" y="285" />
            </Array>
          </mxGeometry>
        </mxCell>
        <mxCell id="tU0DC7_8pxIkKtIqOvoZ-39" value="데이터 저장" style="rounded=0;whiteSpace=wrap;html=1;" vertex="1" parent="1">
          <mxGeometry x="-40" y="422.25" width="115" height="60" as="geometry" />
        </mxCell>
        <mxCell id="tU0DC7_8pxIkKtIqOvoZ-54" style="edgeStyle=orthogonalEdgeStyle;rounded=0;orthogonalLoop=1;jettySize=auto;html=1;exitX=0.5;exitY=1;exitDx=0;exitDy=0;entryX=0.5;entryY=0;entryDx=0;entryDy=0;" edge="1" parent="1" source="tU0DC7_8pxIkKtIqOvoZ-50" target="tU0DC7_8pxIkKtIqOvoZ-53">
          <mxGeometry relative="1" as="geometry" />
        </mxCell>
        <mxCell id="tU0DC7_8pxIkKtIqOvoZ-50" value="모델 저장" style="rounded=0;whiteSpace=wrap;html=1;" vertex="1" parent="1">
          <mxGeometry x="630" y="220" width="115" height="60" as="geometry" />
        </mxCell>
        <mxCell id="tU0DC7_8pxIkKtIqOvoZ-62" style="edgeStyle=orthogonalEdgeStyle;rounded=0;orthogonalLoop=1;jettySize=auto;html=1;exitX=0.5;exitY=1;exitDx=0;exitDy=0;entryX=0.5;entryY=0;entryDx=0;entryDy=0;" edge="1" parent="1" source="tU0DC7_8pxIkKtIqOvoZ-53" target="tU0DC7_8pxIkKtIqOvoZ-58">
          <mxGeometry relative="1" as="geometry" />
        </mxCell>
        <mxCell id="tU0DC7_8pxIkKtIqOvoZ-53" value="예측할 데이터&amp;nbsp;&lt;div&gt;불러오기&lt;/div&gt;" style="rounded=0;whiteSpace=wrap;html=1;" vertex="1" parent="1">
          <mxGeometry x="630" y="320" width="115" height="60" as="geometry" />
        </mxCell>
        <mxCell id="tU0DC7_8pxIkKtIqOvoZ-60" style="edgeStyle=orthogonalEdgeStyle;rounded=0;orthogonalLoop=1;jettySize=auto;html=1;exitX=0.5;exitY=1;exitDx=0;exitDy=0;entryX=0.5;entryY=0;entryDx=0;entryDy=0;" edge="1" parent="1" source="tU0DC7_8pxIkKtIqOvoZ-58" target="tU0DC7_8pxIkKtIqOvoZ-59">
          <mxGeometry relative="1" as="geometry" />
        </mxCell>
        <mxCell id="tU0DC7_8pxIkKtIqOvoZ-58" value="예측" style="rounded=0;whiteSpace=wrap;html=1;" vertex="1" parent="1">
          <mxGeometry x="630" y="419.5" width="115" height="60" as="geometry" />
        </mxCell>
        <mxCell id="tU0DC7_8pxIkKtIqOvoZ-65" style="edgeStyle=orthogonalEdgeStyle;rounded=0;orthogonalLoop=1;jettySize=auto;html=1;exitX=0.5;exitY=1;exitDx=0;exitDy=0;entryX=0.5;entryY=0;entryDx=0;entryDy=0;" edge="1" parent="1" source="tU0DC7_8pxIkKtIqOvoZ-59" target="tU0DC7_8pxIkKtIqOvoZ-64">
          <mxGeometry relative="1" as="geometry" />
        </mxCell>
        <mxCell id="tU0DC7_8pxIkKtIqOvoZ-59" value="&lt;div&gt;Data&lt;/div&gt;&lt;div&gt;&lt;span style=&quot;background-color: initial;&quot;&gt;denormalization&lt;/span&gt;&lt;br&gt;&lt;/div&gt;" style="rounded=0;whiteSpace=wrap;html=1;" vertex="1" parent="1">
          <mxGeometry x="630" y="524.5" width="115" height="60" as="geometry" />
        </mxCell>
        <mxCell id="tU0DC7_8pxIkKtIqOvoZ-67" style="edgeStyle=orthogonalEdgeStyle;rounded=0;orthogonalLoop=1;jettySize=auto;html=1;exitX=0.5;exitY=1;exitDx=0;exitDy=0;entryX=0.5;entryY=0;entryDx=0;entryDy=0;" edge="1" parent="1" source="tU0DC7_8pxIkKtIqOvoZ-64" target="tU0DC7_8pxIkKtIqOvoZ-66">
          <mxGeometry relative="1" as="geometry" />
        </mxCell>
        <mxCell id="tU0DC7_8pxIkKtIqOvoZ-64" value="시계열 데이터 생성" style="rounded=0;whiteSpace=wrap;html=1;" vertex="1" parent="1">
          <mxGeometry x="630" y="630" width="115" height="60" as="geometry" />
        </mxCell>
        <mxCell id="tU0DC7_8pxIkKtIqOvoZ-66" value="이상치 검출 및 라벨링" style="rounded=0;whiteSpace=wrap;html=1;" vertex="1" parent="1">
          <mxGeometry x="630" y="740" width="115" height="60" as="geometry" />
        </mxCell>
        <mxCell id="tU0DC7_8pxIkKtIqOvoZ-69" value="끝" style="strokeWidth=1;html=1;shape=mxgraph.flowchart.terminator;whiteSpace=wrap;" vertex="1" parent="1">
          <mxGeometry x="627.5" y="840" width="120" height="60" as="geometry" />
        </mxCell>
        <mxCell id="tU0DC7_8pxIkKtIqOvoZ-70" style="edgeStyle=orthogonalEdgeStyle;rounded=0;orthogonalLoop=1;jettySize=auto;html=1;exitX=0.5;exitY=1;exitDx=0;exitDy=0;entryX=0.5;entryY=0;entryDx=0;entryDy=0;entryPerimeter=0;" edge="1" parent="1" source="tU0DC7_8pxIkKtIqOvoZ-66" target="tU0DC7_8pxIkKtIqOvoZ-69">
          <mxGeometry relative="1" as="geometry" />
        </mxCell>
      </root>
    </mxGraphModel>
  </diagram>
</mxfile>
